<?xml version="1.0" encoding="UTF-8"?>
<svg id="Layer_1" data-name="Layer 1" xmlns="http://www.w3.org/2000/svg" viewBox="0 0 1080 445">
  <defs>
    <style>
      .cls-1 {
        fill: #fff;
        stroke-width: 0px;
      }
    </style>
  </defs>
  <path class="cls-1" d="m34.22,282.89l27.5-20.55c9.8,17.07,30.66,34.77,61,34.77s40.14-13.59,40.14-32.87c0-21.49-24.65-27.81-53.42-35.72-33.19-9.17-69.54-20.55-69.54-60.69,0-34.45,26.23-61.64,73.02-61.64,42.36,0,64.16,17.07,75.86,34.77l-24.65,20.23c-7.27-10.75-21.49-26.55-49.31-26.87-29.08-.32-42.99,10.12-42.99,30.66s25.92,26.87,54.68,34.77c33.82,9.8,69.85,21.49,69.85,62.59,0,36.35-25.6,63.22-73.96,63.22-42.99,0-69.54-16.44-88.19-42.67Z"/>
  <path class="cls-1" d="m247.89,238.95v4.11c0,29.71,14.86,55.63,53.1,55.63,23.71,0,36.98-7.59,48.04-27.18l24.65,17.07c-18.33,24.65-40.77,37.61-73.65,37.61-50.57,0-82.18-31.61-82.18-86.92,0-27.18,7.9-50.89,23.39-66.69,14.22-15.17,36.03-23.07,59.74-23.07s43.3,7.59,56.9,21.49c14.54,15.17,19.91,36.98,19.91,64.17v10.75h-103.68l-26.23-6.95Zm12.96-49.31c-7.9,8.54-11.7,20.86-12.64,35.09h99.25c-.32-13.91-4.74-25.92-12.96-34.77-7.27-7.59-16.12-13.59-35.09-13.59s-30.03,4.43-38.56,13.28Z"/>
  <path class="cls-1" d="m410.99,154.56h27.82l3.48,44.57h1.26c3.16-6.32,7.59-15.17,14.86-23.39,9.8-12.01,23.71-25.92,40.77-25.92h7.9v37.61h-9.48c-23.39,0-45.52,8.22-54.37,13.59v120.11h-32.24v-166.58Z"/>
  <path class="cls-1" d="m531.42,82.81h32.56v103.04c15.49-19.28,31.92-36.35,64.17-36.35,19.28,0,26.23,4.42,34.45,13.28,9.48,10.75,11.38,26.87,11.38,57.53v100.83h-33.5v-97.67c0-20.86-1.58-34.14-5.37-37.61-4.11-3.79-6.95-6.95-20.23-6.95-26.87,0-48.05,7.9-50.89,8.54v133.7h-32.56V82.81Z"/>
  <path class="cls-1" d="m875.32,295.53v25.6c-1.9.63-8.85,2.53-16.75,2.53-14.86,0-32.87-6.95-32.87-38.56v-56.9l-8.85,10.75c-8.22,2.84-28.45,4.74-46.78,6.64-19.91,2.84-28.76,11.38-28.76,27.81,0,17.39,9.17,25.92,29.39,25.92s36.67-9.17,48.05-21.18c-9.48,34.14-32.24,48.04-60.37,48.04-31.92,0-53.1-16.12-53.1-47.1s19.28-48.05,62.9-51.84c34.77-3.16,54.68-3.48,57.53-10.43v-1.9c0-28.45-13.91-40.46-41.41-40.46-24.97,0-38.56,7.9-50.26,22.12l-24.97-19.6c21.81-19.6,46.78-27.5,76.49-27.5,45.83,0,70.8,23.39,70.8,61,0,16.44,0,70.49.32,71.12,0,11.7,6.01,14.86,12.33,14.86,1.9,0,4.74-.32,6.32-.95Z"/>
  <path class="cls-1" d="m902.5,154.56h30.34l2.21,32.87c15.49-18.65,34.77-37.93,65.11-37.93,15.49,0,27.18,4.42,34.45,12.96,8.85,9.8,11.38,27.81,11.38,57.84v100.83h-32.87v-97.67c0-24.34-.95-32.87-5.69-37.61-3.79-4.42-9.8-7.59-22.13-7.59-25.29,0-44.25,8.85-49.31,9.17v133.7h-33.51v-166.58Z"/>
</svg>