<?xml version="1.0" encoding="UTF-8"?>
<svg id="Layer_1" data-name="Layer 1" xmlns="http://www.w3.org/2000/svg" viewBox="0 0 1080 445">
  <defs>
    <style>
      .cls-1 {
        stroke-width: 0px;
      }
    </style>
  </defs>
  <path class="cls-1" d="m24.57,300.32l26.96-22.58c17.52,22.58,39.09,32.01,61.66,32.01,31.67,0,39.76-13.82,39.76-26.96,0-18.2-25.27-22.91-52.23-28.64-32.01-6.4-67.06-15.5-67.06-51.22,0-29.32,24.6-55.94,67.73-55.94,39.09,0,59.31,10.78,85.93,34.37l-25.95,19.54c-18.53-18.87-35.38-27.29-62-27.29-22.91,0-34.37,11.12-34.37,24.6,0,17.86,25.27,22.24,52.57,27.97,32.69,6.74,68.07,15.5,68.07,50.88,0,33.36-23.25,59.31-71.77,59.31-40.44,0-68.07-12.47-89.3-36.05Z"/>
  <path class="cls-1" d="m234.83,244.38v4.38c0,31.67,15.84,59.31,56.61,59.31,25.27,0,39.42-8.09,51.22-28.98l26.28,18.2c-19.54,26.28-43.47,40.1-78.51,40.1-53.92,0-87.61-33.7-87.61-92.66,0-28.98,8.42-54.25,24.94-71.1,15.16-16.17,38.41-24.6,63.69-24.6s46.16,8.09,60.65,22.91c15.5,16.17,21.23,39.42,21.23,68.4v11.46h-110.52l-27.97-7.41Zm13.82-52.57c-8.42,9.1-12.47,22.24-13.48,37.4h105.81c-.34-14.83-5.05-27.63-13.81-37.07-7.75-8.09-17.19-14.49-37.4-14.49s-32.01,4.72-41.11,14.15Z"/>
  <path class="cls-1" d="m401.96,154.41h29.65l3.71,47.51h1.35c3.37-6.74,8.09-16.17,15.84-24.94,10.45-12.81,25.27-27.63,43.47-27.63h8.42v40.1h-10.11c-24.94,0-48.52,8.76-57.96,14.49v128.05h-34.37v-177.58Z"/>
  <path class="cls-1" d="m523.6,77.92h34.71v109.85c16.51-20.55,34.03-38.75,68.4-38.75,20.55,0,27.97,4.72,36.73,14.15,10.11,11.46,12.13,28.64,12.13,61.33v107.49h-35.72v-104.12c0-22.24-1.68-36.39-5.73-40.1-4.38-4.04-7.41-7.41-21.57-7.41-28.64,0-51.22,8.42-54.25,9.1v142.54h-34.71V77.92Z"/>
  <path class="cls-1" d="m871.69,331.99h-37.74c-3.37-2.7-3.71-22.24-3.71-39.76l-.34-55.94.34-2.69-9.44,10.78c-8.76,3.03-30.33,5.06-49.87,7.08-20.89,3.03-30.66,12.13-30.66,29.65,0,18.53,10.11,27.63,31.67,27.63s38.75-9.77,50.88-22.58c-9.77,36.39-34.37,51.22-64.02,51.22-34.37,0-56.95-17.19-56.95-50.21s20.55-51.22,67.06-55.26c37.07-3.37,58.29-3.71,61.33-11.12v-2.02c0-30.33-14.83-43.13-44.14-43.13-26.28,0-41.11,8.42-53.58,23.59l-26.28-20.89c22.91-20.89,49.53-29.32,81.21-29.32,49.2,0,75.82,24.94,75.82,65.03v58.63c0,19.54,4.04,54.93,8.42,59.31Z"/>
  <path class="cls-1" d="m903.02,154.41h32.35l2.36,35.05c16.51-19.88,37.07-40.44,69.41-40.44,16.51,0,28.98,4.72,36.73,13.82,9.44,10.45,12.13,29.65,12.13,61.66v107.49h-35.04v-104.12c0-25.95-1.01-35.04-6.07-40.1-4.04-4.72-10.44-8.09-23.59-8.09-26.96,0-47.17,9.44-52.57,9.77v142.54h-35.72v-177.58Z"/>
</svg>